<?xml version="1.0" standalone="no"?>
<!DOCTYPE svg PUBLIC "-//W3C//DTD SVG 20010904//EN"
 "http://www.w3.org/TR/2001/REC-SVG-20010904/DTD/svg10.dtd">
<svg version="1.0" xmlns="http://www.w3.org/2000/svg"
 width="1000.000000pt" height="623.000000pt" viewBox="0 0 1000.000000 623.000000"
 preserveAspectRatio="xMidYMid meet">
<metadata>
Created by potrace 1.16, written by Peter Selinger 2001-2019
</metadata>
<g transform="translate(0.000000,623.000000) scale(0.100000,-0.100000)"
fill="#000000" stroke="none">
<path d="M304 4486 c-106 -26 -207 -112 -238 -203 -21 -60 -20 -176 0 -236 34
-101 139 -182 319 -247 225 -81 289 -138 302 -266 16 -157 -93 -267 -267 -268
-168 -1 -275 82 -301 233 l-11 61 -49 0 c-56 0 -57 -2 -38 -92 16 -73 50 -136
101 -185 153 -148 442 -151 579 -6 59 61 82 117 87 210 6 111 -15 178 -80 248
-60 66 -109 95 -246 146 -194 73 -256 114 -293 194 -23 49 -24 133 -3 183 36
87 126 142 234 142 84 0 130 -13 182 -53 51 -39 88 -107 97 -179 l6 -53 53 -3
53 -3 -7 53 c-31 243 -238 383 -480 324z"/>
<path d="M1040 3835 l0 -645 50 0 50 0 0 645 0 645 -50 0 -50 0 0 -645z"/>
<path d="M1470 3835 l0 -645 52 0 51 0 -6 551 c-4 304 -5 550 -3 548 2 -2 90
-251 197 -552 l193 -548 40 3 41 3 192 545 c106 300 194 550 196 555 2 6 2
-241 -1 -547 l-5 -558 52 0 51 0 0 645 0 645 -67 0 -68 0 -194 -565 c-107
-310 -197 -562 -199 -560 -3 3 -91 256 -197 562 l-192 558 -66 3 -67 3 0 -646z"/>
<path d="M2830 3836 l0 -646 50 0 50 0 0 259 0 259 183 5 c204 5 258 16 329
70 92 70 135 189 126 346 -9 153 -77 262 -198 320 -54 25 -60 26 -297 29
l-243 4 0 -646z m484 530 c91 -38 145 -125 153 -246 8 -111 -15 -181 -76 -241
-62 -60 -101 -69 -300 -69 l-161 0 0 285 0 285 175 0 c126 0 185 -4 209 -14z"/>
<path d="M3810 3835 l0 -645 315 0 315 0 0 45 0 45 -265 0 -265 0 0 600 0 600
-50 0 -50 0 0 -645z"/>
<path d="M4650 3835 l0 -645 340 0 340 0 0 45 0 45 -290 0 -290 0 2 263 3 262
253 3 252 2 0 45 0 45 -255 0 -255 0 0 240 0 240 288 2 287 3 3 48 3 47 -340
0 -341 0 0 -645z"/>
<path d="M307 3050 c-105 -27 -210 -117 -241 -207 -9 -26 -16 -79 -16 -118 0
-93 21 -153 75 -213 52 -57 125 -98 289 -161 67 -26 140 -59 163 -74 176 -112
139 -384 -61 -438 -63 -17 -203 -7 -252 19 -85 43 -135 116 -149 215 l-6 47
-51 0 -51 0 7 -51 c11 -80 43 -154 92 -208 138 -154 426 -173 578 -39 68 59
98 125 104 224 11 200 -78 307 -330 399 -183 67 -255 114 -289 190 -24 52 -24
138 0 190 23 51 89 111 138 124 50 14 156 14 204 -1 86 -25 155 -117 168 -221
l6 -52 44 -3 c24 -2 48 1 52 5 15 15 -9 125 -41 190 -58 118 -165 183 -309
189 -47 2 -103 -1 -124 -6z"/>
<path d="M3707 3049 c-140 -33 -252 -156 -294 -326 -25 -100 -25 -559 0 -653
41 -156 128 -265 245 -311 81 -32 233 -32 313 -1 106 42 179 125 226 258 27
77 27 85 31 344 4 295 -4 363 -57 475 -53 113 -137 185 -250 211 -63 15 -157
16 -214 3z m216 -105 c101 -34 174 -136 196 -274 14 -84 14 -466 0 -550 -19
-123 -79 -218 -164 -263 -57 -29 -176 -35 -245 -12 -98 33 -167 117 -195 240
-14 57 -16 118 -13 345 3 261 5 278 27 334 36 90 109 162 191 187 44 13 155
10 203 -7z"/>
<path d="M9488 3046 c-101 -29 -181 -96 -222 -185 -31 -70 -30 -208 4 -276 47
-97 136 -160 315 -225 175 -64 249 -113 280 -187 22 -52 19 -165 -5 -212 -25
-50 -89 -105 -139 -119 -56 -17 -179 -15 -236 5 -96 32 -175 143 -175 245 0
27 -2 28 -51 28 l-52 0 6 -59 c19 -215 231 -360 471 -323 134 21 225 84 274
191 34 72 37 187 8 271 -36 105 -134 179 -328 251 -228 84 -293 145 -292 279
1 102 43 168 134 209 60 27 187 29 245 2 83 -37 140 -121 152 -221 l6 -50 50
0 50 0 -7 62 c-13 127 -95 242 -209 294 -74 33 -201 42 -279 20z"/>
<path d="M1040 2395 l0 -645 50 0 50 0 0 645 0 645 -50 0 -50 0 0 -645z"/>
<path d="M1470 2395 l0 -645 315 0 315 0 0 45 0 45 -265 0 -265 0 0 600 0 600
-50 0 -50 0 0 -645z"/>
<path d="M2310 2395 l0 -645 50 0 50 0 0 310 0 310 305 0 305 0 0 -310 0 -310
50 0 50 0 0 645 0 645 -50 0 -50 0 0 -290 0 -290 -305 0 -305 0 0 290 0 290
-50 0 -50 0 0 -645z"/>
<path d="M4492 2518 c3 -520 3 -523 26 -580 61 -150 232 -230 427 -200 133 21
218 82 272 197 l28 60 3 523 3 522 -51 0 -50 0 0 -493 c0 -559 -1 -566 -71
-642 -50 -55 -107 -75 -209 -75 -139 0 -219 48 -259 155 -20 54 -21 73 -21
555 l0 500 -50 0 -51 0 3 -522z"/>
<path d="M5540 2395 l0 -645 340 0 340 0 0 45 0 45 -290 0 -290 0 0 265 0 265
250 0 250 0 0 45 0 45 -250 0 -250 0 0 245 0 245 285 0 285 0 0 45 0 45 -335
0 -335 0 0 -645z"/>
<path d="M6370 2995 l0 -45 180 0 180 0 0 -600 0 -600 50 0 50 0 2 598 3 597
183 3 182 2 0 45 0 45 -415 0 -415 0 0 -45z"/>
<path d="M7330 2995 l0 -45 180 0 180 0 0 -600 0 -600 55 0 55 0 0 600 0 600
180 0 180 0 0 45 0 45 -415 0 -415 0 0 -45z"/>
<path d="M8370 2395 l0 -645 340 0 340 0 0 45 0 45 -287 2 -288 3 -3 263 -2
262 255 0 255 0 0 45 0 45 -252 2 -253 3 0 240 0 240 288 3 287 2 0 45 0 45
-340 0 -340 0 0 -645z"/>
</g>
</svg>
